<svg width="136" height="24" viewBox="0 0 136 24" fill="none" xmlns="http://www.w3.org/2000/svg">
<path d="M17.5598 21C17.3998 21.0006 17.2421 20.9629 17.0998 20.89L11.9998 18.22L6.89976 20.89C6.73416 20.9771 6.54744 21.016 6.36084 21.0022C6.17424 20.9884 5.99524 20.9226 5.84419 20.8122C5.69314 20.7018 5.5761 20.5512 5.50638 20.3776C5.43665 20.2039 5.41704 20.0142 5.44976 19.83L6.44976 14.2L2.32976 10.2C2.20122 10.0717 2.11003 9.91087 2.06599 9.73469C2.02195 9.55852 2.02671 9.37367 2.07976 9.2C2.13772 9.02227 2.24434 8.86435 2.38751 8.74416C2.53069 8.62396 2.70469 8.5463 2.88976 8.52L8.58976 7.69L11.0998 2.56C11.1816 2.39093 11.3095 2.24834 11.4687 2.14857C11.6278 2.0488 11.8119 1.99589 11.9998 1.99589C12.1876 1.99589 12.3717 2.0488 12.5309 2.14857C12.69 2.24834 12.8179 2.39093 12.8998 2.56L15.4398 7.68L21.1398 8.51C21.3248 8.5363 21.4988 8.61396 21.642 8.73416C21.7852 8.85435 21.8918 9.01227 21.9498 9.19C22.0028 9.36367 22.0076 9.54852 21.9635 9.72469C21.9195 9.90087 21.8283 10.0617 21.6998 10.19L17.5798 14.19L18.5798 19.82C18.6155 20.0075 18.5968 20.2013 18.5259 20.3784C18.455 20.5556 18.3349 20.7089 18.1798 20.82C17.9987 20.9469 17.7806 21.0102 17.5598 21Z" fill="#FFC042"/>
<path d="M45.5598 21C45.3998 21.0006 45.2421 20.9629 45.0998 20.89L39.9998 18.22L34.8998 20.89C34.7342 20.9771 34.5474 21.016 34.3608 21.0022C34.1742 20.9884 33.9952 20.9226 33.8442 20.8122C33.6931 20.7018 33.5761 20.5512 33.5064 20.3776C33.4367 20.2039 33.417 20.0142 33.4498 19.83L34.4498 14.2L30.3298 10.2C30.2012 10.0717 30.11 9.91087 30.066 9.73469C30.0219 9.55852 30.0267 9.37367 30.0798 9.2C30.1377 9.02227 30.2443 8.86435 30.3875 8.74416C30.5307 8.62396 30.7047 8.5463 30.8898 8.52L36.5898 7.69L39.0998 2.56C39.1816 2.39093 39.3095 2.24834 39.4687 2.14857C39.6278 2.0488 39.8119 1.99589 39.9998 1.99589C40.1876 1.99589 40.3717 2.0488 40.5309 2.14857C40.69 2.24834 40.8179 2.39093 40.8998 2.56L43.4398 7.68L49.1398 8.51C49.3248 8.5363 49.4988 8.61396 49.642 8.73416C49.7852 8.85435 49.8918 9.01227 49.9498 9.19C50.0028 9.36367 50.0076 9.54852 49.9635 9.72469C49.9195 9.90087 49.8283 10.0617 49.6998 10.19L45.5798 14.19L46.5798 19.82C46.6155 20.0075 46.5968 20.2013 46.5259 20.3784C46.455 20.5556 46.3349 20.7089 46.1798 20.82C45.9987 20.9469 45.7806 21.0102 45.5598 21Z" fill="#FFC042"/>
<path d="M73.5598 21C73.3998 21.0006 73.2421 20.9629 73.0998 20.89L67.9998 18.22L62.8998 20.89C62.7342 20.9771 62.5474 21.016 62.3608 21.0022C62.1742 20.9884 61.9952 20.9226 61.8442 20.8122C61.6931 20.7018 61.5761 20.5512 61.5064 20.3776C61.4367 20.2039 61.417 20.0142 61.4498 19.83L62.4498 14.2L58.3298 10.2C58.2012 10.0717 58.11 9.91087 58.066 9.73469C58.0219 9.55852 58.0267 9.37367 58.0798 9.2C58.1377 9.02227 58.2443 8.86435 58.3875 8.74416C58.5307 8.62396 58.7047 8.5463 58.8898 8.52L64.5898 7.69L67.0998 2.56C67.1816 2.39093 67.3095 2.24834 67.4687 2.14857C67.6278 2.0488 67.8119 1.99589 67.9998 1.99589C68.1876 1.99589 68.3717 2.0488 68.5309 2.14857C68.69 2.24834 68.8179 2.39093 68.8998 2.56L71.4398 7.68L77.1398 8.51C77.3248 8.5363 77.4988 8.61396 77.642 8.73416C77.7852 8.85435 77.8918 9.01227 77.9498 9.19C78.0028 9.36367 78.0076 9.54852 77.9635 9.72469C77.9195 9.90087 77.8283 10.0617 77.6998 10.19L73.5798 14.19L74.5798 19.82C74.6155 20.0075 74.5968 20.2013 74.5259 20.3784C74.455 20.5556 74.3349 20.7089 74.1798 20.82C73.9987 20.9469 73.7806 21.0102 73.5598 21Z" fill="#FFC042"/>
<path d="M101.56 21C101.4 21.0006 101.242 20.9629 101.1 20.89L95.9998 18.22L90.8998 20.89C90.7342 20.9771 90.5474 21.016 90.3608 21.0022C90.1742 20.9884 89.9952 20.9226 89.8442 20.8122C89.6931 20.7018 89.5761 20.5512 89.5064 20.3776C89.4367 20.2039 89.417 20.0142 89.4498 19.83L90.4498 14.2L86.3298 10.2C86.2012 10.0717 86.11 9.91087 86.066 9.73469C86.0219 9.55852 86.0267 9.37367 86.0798 9.2C86.1377 9.02227 86.2443 8.86435 86.3875 8.74416C86.5307 8.62396 86.7047 8.5463 86.8898 8.52L92.5898 7.69L95.0998 2.56C95.1816 2.39093 95.3095 2.24834 95.4687 2.14857C95.6278 2.0488 95.8119 1.99589 95.9998 1.99589C96.1876 1.99589 96.3717 2.0488 96.5309 2.14857C96.69 2.24834 96.8179 2.39093 96.8998 2.56L99.4398 7.68L105.14 8.51C105.325 8.5363 105.499 8.61396 105.642 8.73416C105.785 8.85435 105.892 9.01227 105.95 9.19C106.003 9.36367 106.008 9.54852 105.964 9.72469C105.919 9.90087 105.828 10.0617 105.7 10.19L101.58 14.19L102.58 19.82C102.615 20.0075 102.597 20.2013 102.526 20.3784C102.455 20.5556 102.335 20.7089 102.18 20.82C101.999 20.9469 101.781 21.0102 101.56 21Z" fill="#FFC042"/>
<path d="M129.56 21C129.4 21.0006 129.242 20.9629 129.1 20.89L124 18.22L118.9 20.89C118.734 20.9771 118.547 21.016 118.361 21.0022C118.174 20.9884 117.995 20.9226 117.844 20.8122C117.693 20.7018 117.576 20.5512 117.506 20.3776C117.437 20.2039 117.417 20.0142 117.45 19.83L118.45 14.2L114.33 10.2C114.201 10.0717 114.11 9.91087 114.066 9.73469C114.022 9.55852 114.027 9.37367 114.08 9.2C114.138 9.02227 114.244 8.86435 114.388 8.74416C114.531 8.62396 114.705 8.5463 114.89 8.52L120.59 7.69L123.1 2.56C123.182 2.39093 123.309 2.24834 123.469 2.14857C123.628 2.0488 123.812 1.99589 124 1.99589C124.188 1.99589 124.372 2.0488 124.531 2.14857C124.69 2.24834 124.818 2.39093 124.9 2.56L127.44 7.68L133.14 8.51C133.325 8.5363 133.499 8.61396 133.642 8.73416C133.785 8.85435 133.892 9.01227 133.95 9.19C134.003 9.36367 134.008 9.54852 133.964 9.72469C133.919 9.90087 133.828 10.0617 133.7 10.19L129.58 14.19L130.58 19.82C130.615 20.0075 130.597 20.2013 130.526 20.3784C130.455 20.5556 130.335 20.7089 130.18 20.82C129.999 20.9469 129.781 21.0102 129.56 21Z" fill="#FFC042"/>
</svg>
