<svg width="312" height="36" viewBox="0 0 312 36" fill="none" xmlns="http://www.w3.org/2000/svg">
<path d="M9.57934 5.74712H24.3838H28.738C30.262 5.74712 31.0803 4.41222 31.1328 3.01597C31.1878 1.55616 30.2518 0.0747214 28.738 0.0747084C23.5129 0.0746635 16.5461 -0.0933631 9.57934 0.0747084C2.61255 0.24278 0 5.11688 0 8.68837V27.3863C0 28.6468 0.566052 31.336 1.95941 32.8486C3.70111 34.7394 6.08914 36 9.57934 36C12.4096 36 13.4982 35.1596 13.4982 33.2688C13.4982 31.378 12.3661 30.4957 9.57934 30.3276C6.79262 30.1595 6.09594 28.2967 6.09594 27.3863V8.68837C6.09594 6.33537 8.41821 5.74712 9.57934 5.74712Z" fill="#050F28"/>
<path d="M39.4207 30.2529H24.6162H20.262C18.738 30.2529 17.9197 31.5878 17.8672 32.984C17.8122 34.4438 18.7482 35.9253 20.262 35.9253C25.4871 35.9253 32.4539 36.0934 39.4207 35.9253C46.3875 35.7572 49 30.8831 49 27.3116V8.61367C49 7.35316 48.4339 4.66402 47.0406 3.15137C45.2989 1.26057 42.9109 0 39.4207 0C36.5904 0 35.5018 0.840389 35.5018 2.73119C35.5018 4.622 36.6339 5.50434 39.4207 5.67241C42.2074 5.84049 42.9041 7.70328 42.9041 8.61367V27.3116C42.9041 29.6646 40.5818 30.2529 39.4207 30.2529Z" fill="#050F28"/>
<path d="M66.9819 26.5V9.04545H78.5387V12.0881H70.6722V16.2472H77.7717V19.2898H70.6722V26.5H66.9819ZM80.7418 26.5V13.4091H84.2617V15.6932H84.3981C84.6367 14.8807 85.0373 14.267 85.5998 13.8523C86.1623 13.4318 86.81 13.2216 87.543 13.2216C87.7248 13.2216 87.9208 13.233 88.131 13.2557C88.3413 13.2784 88.5259 13.3097 88.685 13.3494V16.571C88.5146 16.5199 88.2788 16.4744 87.9776 16.4347C87.6765 16.3949 87.4009 16.375 87.1509 16.375C86.6168 16.375 86.1396 16.4915 85.7191 16.7244C85.3043 16.9517 84.9748 17.2699 84.7305 17.679C84.4918 18.0881 84.3725 18.5597 84.3725 19.0938V26.5H80.7418ZM95.8675 26.7557C94.5437 26.7557 93.3988 26.4744 92.4329 25.9119C91.4727 25.3437 90.7312 24.554 90.2085 23.5426C89.6857 22.5256 89.4244 21.3466 89.4244 20.0057C89.4244 18.6534 89.6857 17.4716 90.2085 16.4602C90.7312 15.4432 91.4727 14.6534 92.4329 14.0909C93.3988 13.5227 94.5437 13.2386 95.8675 13.2386C97.1914 13.2386 98.3335 13.5227 99.2937 14.0909C100.26 14.6534 101.004 15.4432 101.527 16.4602C102.049 17.4716 102.311 18.6534 102.311 20.0057C102.311 21.3466 102.049 22.5256 101.527 23.5426C101.004 24.554 100.26 25.3437 99.2937 25.9119C98.3335 26.4744 97.1914 26.7557 95.8675 26.7557ZM95.8846 23.9432C96.4869 23.9432 96.9897 23.7727 97.3931 23.4318C97.7965 23.0852 98.1005 22.6136 98.305 22.017C98.5153 21.4205 98.6204 20.7415 98.6204 19.9801C98.6204 19.2188 98.5153 18.5398 98.305 17.9432C98.1005 17.3466 97.7965 16.875 97.3931 16.5284C96.9897 16.1818 96.4869 16.0085 95.8846 16.0085C95.2766 16.0085 94.7653 16.1818 94.3505 16.5284C93.9414 16.875 93.6317 17.3466 93.4215 17.9432C93.217 18.5398 93.1147 19.2188 93.1147 19.9801C93.1147 20.7415 93.217 21.4205 93.4215 22.017C93.6317 22.6136 93.9414 23.0852 94.3505 23.4318C94.7653 23.7727 95.2766 23.9432 95.8846 23.9432ZM115.564 17.142L112.24 17.3466C112.183 17.0625 112.061 16.8068 111.873 16.5795C111.686 16.3466 111.439 16.1619 111.132 16.0256C110.831 15.8835 110.47 15.8125 110.049 15.8125C109.487 15.8125 109.012 15.9318 108.626 16.1705C108.24 16.4034 108.047 16.7159 108.047 17.108C108.047 17.4205 108.172 17.6847 108.422 17.9006C108.672 18.1165 109.1 18.2898 109.708 18.4205L112.078 18.8977C113.35 19.1591 114.299 19.5795 114.924 20.1591C115.549 20.7386 115.862 21.5 115.862 22.4432C115.862 23.3011 115.609 24.054 115.103 24.7017C114.603 25.3494 113.916 25.8551 113.041 26.2188C112.172 26.5767 111.169 26.7557 110.032 26.7557C108.299 26.7557 106.919 26.3949 105.89 25.6733C104.868 24.946 104.268 23.9574 104.092 22.7074L107.663 22.5199C107.771 23.0483 108.032 23.4517 108.447 23.7301C108.862 24.0028 109.393 24.1392 110.041 24.1392C110.677 24.1392 111.189 24.017 111.575 23.7727C111.967 23.5227 112.166 23.2017 112.172 22.8097C112.166 22.4801 112.027 22.2102 111.754 22C111.481 21.7841 111.061 21.6193 110.493 21.5057L108.225 21.054C106.947 20.7983 105.995 20.3551 105.37 19.7244C104.751 19.0937 104.441 18.2898 104.441 17.3125C104.441 16.4716 104.669 15.7472 105.123 15.1392C105.583 14.5312 106.228 14.0625 107.058 13.733C107.893 13.4034 108.87 13.2386 109.99 13.2386C111.643 13.2386 112.944 13.5881 113.893 14.2869C114.848 14.9858 115.404 15.9375 115.564 17.142ZM125.111 13.4091V16.1364H117.228V13.4091H125.111ZM119.017 10.2727H122.648V22.4773C122.648 22.8125 122.699 23.0739 122.801 23.2614C122.904 23.4432 123.046 23.571 123.228 23.6449C123.415 23.7187 123.631 23.7557 123.875 23.7557C124.046 23.7557 124.216 23.7415 124.387 23.7131C124.557 23.679 124.688 23.6534 124.779 23.6364L125.35 26.3381C125.168 26.3949 124.912 26.4602 124.583 26.5341C124.253 26.6136 123.853 26.6619 123.381 26.679C122.506 26.7131 121.739 26.5966 121.08 26.3295C120.426 26.0625 119.918 25.6477 119.554 25.0852C119.191 24.5227 119.012 23.8125 119.017 22.9545V10.2727ZM129.718 31.4091C129.257 31.4091 128.826 31.3722 128.422 31.2983C128.025 31.2301 127.695 31.142 127.434 31.0341L128.252 28.3239C128.678 28.4545 129.061 28.5256 129.402 28.5369C129.749 28.5483 130.047 28.4688 130.297 28.2983C130.553 28.1278 130.76 27.8381 130.919 27.429L131.132 26.875L126.436 13.4091H130.255L132.965 23.0227H133.101L135.837 13.4091H139.681L134.593 27.9148C134.348 28.6193 134.016 29.233 133.596 29.7557C133.181 30.2841 132.655 30.6903 132.019 30.9744C131.382 31.2642 130.615 31.4091 129.718 31.4091ZM146.497 12.0881V9.04545H160.832V12.0881H155.488V26.5H151.841V12.0881H146.497ZM167.192 26.7557C165.846 26.7557 164.686 26.483 163.715 25.9375C162.749 25.3864 162.005 24.608 161.482 23.6023C160.959 22.5909 160.698 21.3949 160.698 20.0142C160.698 18.6676 160.959 17.4858 161.482 16.4688C162.005 15.4517 162.74 14.6591 163.689 14.0909C164.644 13.5227 165.763 13.2386 167.047 13.2386C167.911 13.2386 168.715 13.3778 169.459 13.6562C170.209 13.929 170.863 14.3409 171.419 14.892C171.982 15.4432 172.419 16.1364 172.732 16.9716C173.044 17.8011 173.201 18.7727 173.201 19.8864V20.8835H162.147V18.6335H169.783C169.783 18.1108 169.669 17.6477 169.442 17.2443C169.215 16.8409 168.9 16.5256 168.496 16.2983C168.098 16.0653 167.635 15.9489 167.107 15.9489C166.556 15.9489 166.067 16.0767 165.641 16.3324C165.221 16.5824 164.891 16.9205 164.652 17.3466C164.414 17.767 164.292 18.2358 164.286 18.7528V20.892C164.286 21.5398 164.405 22.0994 164.644 22.571C164.888 23.0426 165.232 23.4062 165.675 23.6619C166.118 23.9176 166.644 24.0455 167.252 24.0455C167.655 24.0455 168.025 23.9886 168.36 23.875C168.695 23.7614 168.982 23.5909 169.221 23.3636C169.459 23.1364 169.641 22.858 169.766 22.5284L173.124 22.75C172.953 23.5568 172.604 24.2614 172.076 24.8636C171.553 25.4602 170.877 25.9261 170.047 26.2614C169.223 26.5909 168.272 26.7557 167.192 26.7557ZM181.485 26.7557C180.144 26.7557 178.99 26.4716 178.025 25.9034C177.064 25.3295 176.326 24.5341 175.809 23.517C175.297 22.5 175.042 21.3295 175.042 20.0057C175.042 18.6648 175.3 17.4886 175.817 16.4773C176.34 15.4602 177.081 14.6676 178.042 14.0994C179.002 13.5256 180.144 13.2386 181.468 13.2386C182.61 13.2386 183.61 13.446 184.468 13.8608C185.326 14.2756 186.005 14.858 186.505 15.608C187.005 16.358 187.28 17.2386 187.331 18.25H183.905C183.809 17.5966 183.553 17.071 183.138 16.6733C182.729 16.2699 182.192 16.0682 181.527 16.0682C180.965 16.0682 180.473 16.2216 180.053 16.5284C179.638 16.8295 179.314 17.2699 179.081 17.8494C178.848 18.429 178.732 19.1307 178.732 19.9545C178.732 20.7898 178.846 21.5 179.073 22.0852C179.306 22.6705 179.632 23.1165 180.053 23.4233C180.473 23.7301 180.965 23.8835 181.527 23.8835C181.942 23.8835 182.314 23.7983 182.644 23.6278C182.979 23.4574 183.255 23.2102 183.471 22.8864C183.692 22.5568 183.837 22.1619 183.905 21.7017H187.331C187.275 22.7017 187.002 23.5824 186.513 24.3438C186.03 25.0994 185.363 25.6903 184.51 26.1165C183.658 26.5426 182.65 26.7557 181.485 26.7557ZM193.287 18.9318V26.5H189.656V9.04545H193.184V15.7188H193.338C193.633 14.946 194.11 14.3409 194.77 13.9034C195.429 13.4602 196.255 13.2386 197.25 13.2386C198.159 13.2386 198.951 13.4375 199.627 13.8352C200.309 14.2273 200.838 14.7926 201.213 15.5312C201.593 16.2642 201.781 17.142 201.775 18.1648V26.5H198.145V18.8125C198.15 18.0057 197.946 17.3778 197.531 16.929C197.122 16.4801 196.548 16.2557 195.809 16.2557C195.315 16.2557 194.877 16.3608 194.497 16.571C194.122 16.7812 193.826 17.0881 193.61 17.4915C193.4 17.8892 193.292 18.3693 193.287 18.9318ZM219.724 14.0653C219.656 13.3778 219.363 12.8437 218.846 12.4631C218.329 12.0824 217.627 11.892 216.741 11.892C216.139 11.892 215.63 11.9773 215.216 12.1477C214.801 12.3125 214.483 12.5426 214.261 12.8381C214.045 13.1335 213.937 13.4688 213.937 13.8438C213.926 14.1562 213.991 14.429 214.133 14.6619C214.281 14.8949 214.483 15.0966 214.738 15.267C214.994 15.4318 215.289 15.5767 215.625 15.7017C215.96 15.821 216.318 15.9233 216.699 16.0085L218.267 16.3835C219.028 16.554 219.727 16.7812 220.363 17.0653C221 17.3494 221.551 17.6989 222.017 18.1136C222.483 18.5284 222.843 19.017 223.099 19.5795C223.36 20.142 223.494 20.7869 223.5 21.5142C223.494 22.5824 223.221 23.5085 222.681 24.2926C222.147 25.071 221.375 25.6761 220.363 26.108C219.358 26.5341 218.145 26.7472 216.724 26.7472C215.315 26.7472 214.088 26.5312 213.042 26.0994C212.002 25.6676 211.19 25.0284 210.605 24.1818C210.025 23.3295 209.721 22.2756 209.693 21.0199H213.264C213.304 21.6051 213.471 22.0937 213.767 22.4858C214.068 22.8722 214.468 23.1648 214.968 23.3636C215.474 23.5568 216.045 23.6534 216.681 23.6534C217.306 23.6534 217.849 23.5625 218.309 23.3807C218.775 23.1989 219.136 22.946 219.392 22.6222C219.647 22.2983 219.775 21.9261 219.775 21.5057C219.775 21.1136 219.659 20.7841 219.426 20.517C219.199 20.25 218.863 20.0227 218.42 19.8352C217.983 19.6477 217.446 19.4773 216.809 19.3239L214.909 18.8466C213.437 18.4886 212.275 17.929 211.423 17.1676C210.571 16.4062 210.147 15.3807 210.153 14.0909C210.147 13.0341 210.429 12.1108 210.997 11.321C211.571 10.5312 212.358 9.91477 213.358 9.47159C214.358 9.02841 215.494 8.80682 216.767 8.80682C218.062 8.80682 219.193 9.02841 220.159 9.47159C221.13 9.91477 221.886 10.5312 222.426 11.321C222.966 12.1108 223.244 13.0256 223.261 14.0653H219.724ZM231.88 26.7557C230.533 26.7557 229.374 26.483 228.402 25.9375C227.436 25.3864 226.692 24.608 226.169 23.6023C225.647 22.5909 225.385 21.3949 225.385 20.0142C225.385 18.6676 225.647 17.4858 226.169 16.4688C226.692 15.4517 227.428 14.6591 228.377 14.0909C229.331 13.5227 230.451 13.2386 231.735 13.2386C232.598 13.2386 233.402 13.3778 234.147 13.6562C234.897 13.929 235.55 14.3409 236.107 14.892C236.669 15.4432 237.107 16.1364 237.419 16.9716C237.732 17.8011 237.888 18.7727 237.888 19.8864V20.8835H226.834V18.6335H234.471C234.471 18.1108 234.357 17.6477 234.13 17.2443C233.902 16.8409 233.587 16.5256 233.184 16.2983C232.786 16.0653 232.323 15.9489 231.794 15.9489C231.243 15.9489 230.755 16.0767 230.328 16.3324C229.908 16.5824 229.578 16.9205 229.34 17.3466C229.101 17.767 228.979 18.2358 228.973 18.7528V20.892C228.973 21.5398 229.093 22.0994 229.331 22.571C229.576 23.0426 229.919 23.4062 230.363 23.6619C230.806 23.9176 231.331 24.0455 231.939 24.0455C232.343 24.0455 232.712 23.9886 233.047 23.875C233.382 23.7614 233.669 23.5909 233.908 23.3636C234.147 23.1364 234.328 22.858 234.453 22.5284L237.811 22.75C237.641 23.5568 237.292 24.2614 236.763 24.8636C236.24 25.4602 235.564 25.9261 234.735 26.2614C233.911 26.5909 232.959 26.7557 231.88 26.7557ZM240.257 26.5V13.4091H243.777V15.6932H243.914C244.152 14.8807 244.553 14.267 245.115 13.8523C245.678 13.4318 246.326 13.2216 247.059 13.2216C247.24 13.2216 247.436 13.233 247.647 13.2557C247.857 13.2784 248.042 13.3097 248.201 13.3494V16.571C248.03 16.5199 247.794 16.4744 247.493 16.4347C247.192 16.3949 246.917 16.375 246.667 16.375C246.132 16.375 245.655 16.4915 245.235 16.7244C244.82 16.9517 244.49 17.2699 244.246 17.679C244.007 18.0881 243.888 18.5597 243.888 19.0938V26.5H240.257ZM262.681 13.4091L258.104 26.5H254.013L249.436 13.4091H253.272L255.99 22.7756H256.127L258.837 13.4091H262.681ZM264.539 26.5V13.4091H268.169V26.5H264.539ZM266.363 11.7216C265.823 11.7216 265.36 11.5426 264.973 11.1847C264.593 10.821 264.402 10.3864 264.402 9.88068C264.402 9.38068 264.593 8.9517 264.973 8.59375C265.36 8.23011 265.823 8.04829 266.363 8.04829C266.902 8.04829 267.363 8.23011 267.743 8.59375C268.13 8.9517 268.323 9.38068 268.323 9.88068C268.323 10.3864 268.13 10.821 267.743 11.1847C267.363 11.5426 266.902 11.7216 266.363 11.7216ZM276.993 26.7557C275.652 26.7557 274.498 26.4716 273.532 25.9034C272.572 25.3295 271.833 24.5341 271.316 23.517C270.805 22.5 270.549 21.3295 270.549 20.0057C270.549 18.6648 270.808 17.4886 271.325 16.4773C271.848 15.4602 272.589 14.6676 273.549 14.0994C274.51 13.5256 275.652 13.2386 276.975 13.2386C278.118 13.2386 279.118 13.446 279.975 13.8608C280.833 14.2756 281.512 14.858 282.012 15.608C282.512 16.358 282.788 17.2386 282.839 18.25H279.413C279.316 17.5966 279.061 17.071 278.646 16.6733C278.237 16.2699 277.7 16.0682 277.035 16.0682C276.473 16.0682 275.981 16.2216 275.561 16.5284C275.146 16.8295 274.822 17.2699 274.589 17.8494C274.356 18.429 274.24 19.1307 274.24 19.9545C274.24 20.7898 274.353 21.5 274.581 22.0852C274.814 22.6705 275.14 23.1165 275.561 23.4233C275.981 23.7301 276.473 23.8835 277.035 23.8835C277.45 23.8835 277.822 23.7983 278.152 23.6278C278.487 23.4574 278.762 23.2102 278.978 22.8864C279.2 22.5568 279.345 22.1619 279.413 21.7017H282.839C282.782 22.7017 282.51 23.5824 282.021 24.3438C281.538 25.0994 280.87 25.6903 280.018 26.1165C279.166 26.5426 278.157 26.7557 276.993 26.7557ZM291.13 26.7557C289.783 26.7557 288.624 26.483 287.652 25.9375C286.686 25.3864 285.942 24.608 285.419 23.6023C284.897 22.5909 284.635 21.3949 284.635 20.0142C284.635 18.6676 284.897 17.4858 285.419 16.4688C285.942 15.4517 286.678 14.6591 287.627 14.0909C288.581 13.5227 289.701 13.2386 290.985 13.2386C291.848 13.2386 292.652 13.3778 293.397 13.6562C294.147 13.929 294.8 14.3409 295.357 14.892C295.919 15.4432 296.357 16.1364 296.669 16.9716C296.982 17.8011 297.138 18.7727 297.138 19.8864V20.8835H286.084V18.6335H293.721C293.721 18.1108 293.607 17.6477 293.38 17.2443C293.152 16.8409 292.837 16.5256 292.434 16.2983C292.036 16.0653 291.573 15.9489 291.044 15.9489C290.493 15.9489 290.005 16.0767 289.578 16.3324C289.158 16.5824 288.828 16.9205 288.59 17.3466C288.351 17.767 288.229 18.2358 288.223 18.7528V20.892C288.223 21.5398 288.343 22.0994 288.581 22.571C288.826 23.0426 289.169 23.4062 289.613 23.6619C290.056 23.9176 290.581 24.0455 291.189 24.0455C291.593 24.0455 291.962 23.9886 292.297 23.875C292.632 23.7614 292.919 23.5909 293.158 23.3636C293.397 23.1364 293.578 22.858 293.703 22.5284L297.061 22.75C296.891 23.5568 296.542 24.2614 296.013 24.8636C295.49 25.4602 294.814 25.9261 293.985 26.2614C293.161 26.5909 292.209 26.7557 291.13 26.7557ZM310.4 17.142L307.076 17.3466C307.019 17.0625 306.897 16.8068 306.709 16.5795C306.522 16.3466 306.275 16.1619 305.968 16.0256C305.667 15.8835 305.306 15.8125 304.885 15.8125C304.323 15.8125 303.848 15.9318 303.462 16.1705C303.076 16.4034 302.882 16.7159 302.882 17.108C302.882 17.4205 303.007 17.6847 303.257 17.9006C303.507 18.1165 303.936 18.2898 304.544 18.4205L306.914 18.8977C308.186 19.1591 309.135 19.5795 309.76 20.1591C310.385 20.7386 310.698 21.5 310.698 22.4432C310.698 23.3011 310.445 24.054 309.939 24.7017C309.439 25.3494 308.752 25.8551 307.877 26.2188C307.007 26.5767 306.005 26.7557 304.868 26.7557C303.135 26.7557 301.755 26.3949 300.726 25.6733C299.703 24.946 299.104 23.9574 298.928 22.7074L302.499 22.5199C302.607 23.0483 302.868 23.4517 303.283 23.7301C303.698 24.0028 304.229 24.1392 304.877 24.1392C305.513 24.1392 306.025 24.017 306.411 23.7727C306.803 23.5227 307.002 23.2017 307.007 22.8097C307.002 22.4801 306.863 22.2102 306.59 22C306.317 21.7841 305.897 21.6193 305.328 21.5057L303.061 21.054C301.783 20.7983 300.831 20.3551 300.206 19.7244C299.587 19.0937 299.277 18.2898 299.277 17.3125C299.277 16.4716 299.505 15.7472 299.959 15.1392C300.419 14.5312 301.064 14.0625 301.894 13.733C302.729 13.4034 303.706 13.2386 304.826 13.2386C306.479 13.2386 307.78 13.5881 308.729 14.2869C309.684 14.9858 310.24 15.9375 310.4 17.142Z" fill="#050F28"/>
</svg>
