<svg width="18" height="18" viewBox="0 0 18 18" fill="none" xmlns="http://www.w3.org/2000/svg">
<path d="M8.99998 17.3335C7.74003 17.337 6.496 17.0519 5.36331 16.5001C4.94877 16.2985 4.55159 16.0629 4.17581 15.7959L4.06165 15.7126C3.02816 14.9498 2.18321 13.9603 1.59165 12.8201C0.979761 11.64 0.662404 10.3294 0.666606 9.00008C0.666606 4.39771 4.39761 0.666748 8.99998 0.666748C13.6024 0.666748 17.3334 4.39771 17.3334 9.00008C17.3375 10.3287 17.0205 11.6387 16.4091 12.8184C15.8184 13.9579 14.9746 14.9471 13.9425 15.7101C13.5531 15.9951 13.1399 16.246 12.7075 16.4601L12.6408 16.4934C11.5074 17.0482 10.2619 17.3355 8.99998 17.3335ZM8.99998 13.1667C7.75121 13.1643 6.60637 13.8618 6.03581 14.9726C7.90364 15.8977 10.0963 15.8977 11.9641 14.9726V14.9684C11.3929 13.8588 10.248 13.1629 8.99998 13.1667ZM8.99998 11.5001C10.8051 11.5024 12.4695 12.4752 13.3575 14.0468L13.37 14.0359L13.3816 14.0259L13.3675 14.0384L13.3591 14.0451C15.4666 12.2243 16.2202 9.28536 15.2489 6.67517C14.2775 4.06498 11.7859 2.33368 9.00082 2.33368C6.21574 2.33368 3.72414 4.06498 2.75277 6.67517C1.78141 9.28536 2.53498 12.2243 4.64248 14.0451C5.53103 12.4743 7.19528 11.5023 8.99998 11.5001ZM8.99998 10.6667C7.15903 10.6667 5.66665 9.17437 5.66665 7.33342C5.66665 5.49247 7.15903 4.00008 8.99998 4.00008C10.8409 4.00008 12.3333 5.49247 12.3333 7.33342C12.3333 8.21747 11.9821 9.06532 11.357 9.69044C10.7319 10.3156 9.88404 10.6667 8.99998 10.6667ZM8.99998 5.66675C8.07951 5.66675 7.33331 6.41294 7.33331 7.33342C7.33331 8.25389 8.07951 9.00008 8.99998 9.00008C9.92046 9.00008 10.6666 8.25389 10.6666 7.33342C10.6666 6.41294 9.92046 5.66675 8.99998 5.66675Z" fill="#444444"/>
</svg>
