<svg width="65" height="64" viewBox="0 0 65 64" fill="none" xmlns="http://www.w3.org/2000/svg">
<path d="M3.66106 32.8748C2.6191 33.9168 2.6191 35.6061 3.66106 36.6481L14.9618 47.9488C16.0064 48.9934 17.7009 48.9904 18.7418 47.9422C19.7775 46.8991 19.7745 45.2149 18.7351 44.1755L7.43435 32.8748C6.39239 31.8328 4.70303 31.8328 3.66106 32.8748ZM62.1069 15.898C61.0612 14.8522 59.3655 14.8526 58.3203 15.8989L34.7802 39.4611C33.2171 41.0257 30.6808 41.0248 29.1187 39.4591L22.5291 32.8539C21.4897 31.812 19.8039 31.8051 18.7558 32.8384C17.6982 33.8813 17.6922 35.5859 18.7425 36.6362L29.1201 47.0137C30.6821 48.5758 33.2148 48.5758 34.7769 47.0137L62.1069 19.6838C63.1523 18.6384 63.1523 16.9434 62.1069 15.898ZM47.0306 19.6667C48.07 18.6273 48.073 16.9431 47.0373 15.9C45.9964 14.8518 44.3019 14.8488 43.2573 15.8933L30.0552 29.0955C29.0106 30.1401 29.0136 31.8346 30.0618 32.8755C31.1049 33.9112 32.7891 33.9082 33.8285 32.8688L47.0306 19.6667Z" fill="#2E3A59"/>
</svg>
