<svg width="65" height="64" viewBox="0 0 65 64" fill="none" xmlns="http://www.w3.org/2000/svg">
<path d="M36.935 42.0118C38.6812 44.2603 36.7894 47.1667 33.9425 47.1667H31.4478C28.5894 47.1667 26.6994 44.2407 28.4629 41.9912C29.0854 41.1972 29.7596 40.4507 30.4808 39.7579C31.7247 38.5627 33.6694 38.5616 34.9115 39.7586C35.6361 40.4568 36.3122 41.21 36.935 42.0118ZM50.6665 51.5V54C50.6665 56.2091 48.8756 58 46.6665 58H18.6665C16.4574 58 14.6665 56.2091 14.6665 54V51.5C14.7861 47.753 15.6401 44.0765 17.1718 40.7145C18.0657 38.7523 19.1786 36.9235 20.4816 35.2672C21.9599 33.3881 21.9599 30.6119 20.4816 28.7328C19.1786 27.0765 18.0657 25.2477 17.1718 23.2855C15.6401 19.9235 14.7861 16.247 14.6665 12.5C14.6665 10.7761 15.2986 9.12279 16.4239 7.90381C17.5491 6.68482 19.0752 6 20.6665 6H44.6665C46.2578 6 47.7839 6.68482 48.9091 7.90381C50.0344 9.12279 50.6665 10.7761 50.6665 12.5C50.5484 16.2435 49.6985 19.9174 48.173 23.2788C47.2797 25.247 46.1666 27.082 44.8626 28.7441C43.392 30.6185 43.392 33.3815 44.8626 35.2559C46.1666 36.918 47.2797 38.753 48.173 40.7212C49.6985 44.0826 50.5484 47.7565 50.6665 51.5ZM44.4865 48.9975C43.3645 41.2712 37.3005 35.9477 33.7885 33.4647C33.132 32.9996 32.2515 32.9998 31.5965 33.4668C28.0665 35.9715 21.9845 41.3167 20.8505 48.991C20.6555 50.3131 21.6802 51.5 23.0166 51.5H42.3217C43.6552 51.5 44.6784 50.3171 44.4865 48.9975Z" fill="#2E3A59"/>
</svg>
