<svg width="64" height="64" viewBox="0 0 64 64" fill="none" xmlns="http://www.w3.org/2000/svg">
<path fill-rule="evenodd" clip-rule="evenodd" d="M24.0793 8.91653C29.289 7.69449 34.7109 7.69449 39.9207 8.91653C47.4442 10.6813 53.3187 16.5558 55.0835 24.0794C56.3055 29.2891 56.3055 34.711 55.0835 39.9208C53.3187 47.4444 47.4442 53.3188 39.9206 55.0836C34.7109 56.3057 29.289 56.3057 24.0793 55.0836C16.5557 53.3188 10.6812 47.4444 8.91641 39.9208C7.69437 34.711 7.69437 29.2891 8.91641 24.0794C10.6812 16.5558 16.5557 10.6813 24.0793 8.91653ZM32.7355 24.3417C32.7355 23.458 32.0191 22.7417 31.1355 22.7417C30.2518 22.7417 29.5355 23.458 29.5355 24.3417V33.7714C29.5355 34.3185 29.815 34.8276 30.2765 35.1213L37.5228 39.7318C38.2684 40.2062 39.2573 39.9864 39.7316 39.2408C40.206 38.4953 39.9862 37.5064 39.2406 37.032L32.7355 32.893V24.3417Z" fill="#2E3A59"/>
</svg>
