<svg width="65" height="64" viewBox="0 0 65 64" fill="none" xmlns="http://www.w3.org/2000/svg">
<path d="M62.2465 29.9132H58.9693L63.0503 25.8322C63.7716 25.1109 63.9108 23.9652 63.3252 23.13C62.552 22.0272 61.0212 21.9295 60.1137 22.837L53.0376 29.9132H42.5082C42.2358 28.5763 41.7054 27.3333 40.9759 26.2329L48.4261 18.7828H58.8704C59.2924 18.7828 59.6916 18.5885 59.9518 18.2563C61.3043 16.5283 60.0997 14.6088 58.4487 14.6088H52.6646L55.3058 11.9675C55.6051 11.6683 55.7502 11.247 55.6973 10.827C55.4241 8.65314 53.2214 8.14964 52.0544 9.31652L49.7134 11.6576V5.45188C49.7134 5.02988 49.5192 4.63063 49.1869 4.37051C47.4589 3.018 45.5394 4.22263 45.5394 5.87363V15.8687L38.0893 23.3188C36.9889 22.5893 35.7459 22.0589 34.409 21.7865V11.299L41.4113 4.29676C42.1691 3.539 42.2782 2.319 41.6076 1.48325C40.8151 0.495623 39.3689 0.436873 38.4987 1.30712L34.4089 5.39688V2.14213C34.4089 1.07125 33.6248 0.131372 32.5604 0.0132471C31.3015 -0.126378 30.235 0.856249 30.235 2.087V5.36413L26.154 1.28312C25.4328 0.561873 24.287 0.422623 23.4519 1.00825C22.349 1.7815 22.2514 3.31225 23.1589 4.21976L30.235 11.2959V21.8253C28.8982 22.0977 27.6552 22.628 26.5548 23.3575L19.1046 15.9074V5.45188C19.1046 5.02988 18.9104 4.63063 18.5781 4.37051C16.8501 3.018 14.9306 4.22263 14.9306 5.87363V11.6575L12.2894 9.01626C11.9901 8.71701 11.5689 8.57189 11.1489 8.62476C8.97501 8.89802 8.47151 11.1006 9.63839 12.2676L11.9795 14.6087H5.77401C5.35201 14.6087 4.95275 14.8029 4.69263 15.1352C3.34013 16.8632 4.54475 18.7827 6.19576 18.7827H16.2019L23.652 26.2328C22.9225 27.3332 22.3922 28.5762 22.1198 29.9131H11.6323L4.63 22.9108C3.87225 22.153 2.65225 22.0439 1.8165 22.7145C0.828875 23.507 0.770125 24.9532 1.64038 25.8234L5.73013 29.9132H2.47538C1.4045 29.9132 0.464624 30.6973 0.346499 31.7617C0.206874 33.0206 1.1895 34.0871 2.42025 34.0871H5.69738L1.616 38.1684C0.90425 38.8802 0.75625 40.0073 1.32113 40.8406C1.74463 41.4653 2.4075 41.7777 3.07013 41.7777C3.60675 41.7777 4.14338 41.573 4.55313 41.1632L11.6291 34.0871H22.1585C22.4309 35.4239 22.9613 36.6669 23.6908 37.7673L16.2406 45.2175H5.77401C5.35201 45.2175 4.95275 45.4117 4.69263 45.744C3.34013 47.472 4.54475 49.3915 6.19576 49.3915H11.9796L9.33864 52.0325C9.03751 52.3336 8.89389 52.7579 8.94776 53.1801C9.12789 54.5901 10.121 55.2949 11.1141 55.2949C11.6481 55.2949 12.1821 55.091 12.5896 54.6834L14.9306 52.3424V58.5481C14.9306 58.9701 15.1249 59.3692 15.4571 59.6295C17.1851 60.982 19.1046 59.7774 19.1046 58.1264V48.1313L26.5548 40.6812C27.6552 41.4107 28.8982 41.9411 30.235 42.2135V52.7011L23.2328 59.7034C22.475 60.4611 22.3659 61.6811 23.0365 62.5169C23.829 63.5045 25.2752 63.5633 26.1454 62.693L30.2352 58.6032V61.8579C30.2352 62.9287 31.0193 63.8686 32.0837 63.9868C33.3425 64.1264 34.409 63.1437 34.409 61.913V58.6365L38.5193 62.7467C38.9289 63.1564 39.4657 63.3613 40.0023 63.3613C40.6649 63.3613 41.3278 63.0489 41.7513 62.4241C42.3162 61.5909 42.1683 60.4637 41.4564 59.752L34.409 52.7046V42.1752C35.7459 41.9028 36.9889 41.3725 38.0893 40.643L45.5394 48.0931V58.3305C45.5394 58.9385 45.8417 59.5159 46.3596 59.8341C48.0042 60.8446 49.7133 59.6841 49.7133 58.1262V52.3424L52.0543 54.6834C52.4619 55.091 52.9959 55.2949 53.5298 55.2949C54.4348 55.2949 55.3398 54.7094 55.6296 53.5386C55.7772 52.942 55.5849 52.3119 55.1503 51.8772L52.6644 49.3915H58.6526C59.2606 49.3915 59.838 49.0892 60.1562 48.5713C61.1667 46.9267 60.0062 45.2176 58.4483 45.2176H48.4644L41.0143 37.7674C41.7438 36.6671 42.2742 35.4241 42.5466 34.0872H53.0342L60.075 41.128C60.4826 41.5356 61.0166 41.7395 61.5505 41.7395C62.1683 41.7395 62.7862 41.4666 63.2082 40.9208C63.8546 40.0851 63.7351 38.8861 62.988 38.1389L58.9365 34.0873H62.1911C63.262 34.0873 64.2018 33.3032 64.32 32.2388C64.4598 30.9798 63.4772 29.9132 62.2465 29.9132Z" fill="#2E3A59"/>
</svg>
