<svg width="107" height="89" viewBox="0 0 107 89" fill="none" xmlns="http://www.w3.org/2000/svg">
<path d="M76.6905 21.9469L53.4649 45.8033L30.2406 21.9469C28.2123 19.4016 27.3795 16.2216 27.8948 12.975C28.6946 7.93896 33.081 3.85809 38.3241 3.26561C43.5628 2.63686 49.7984 6.13733 51.9545 10.8349C52.4873 11.9896 54.4432 11.9896 54.9753 10.8349C57.1333 6.13733 63.3945 2.63686 68.6039 3.26561C73.8488 3.85809 78.2353 7.93896 79.0338 12.975C79.5566 16.2639 78.6913 19.4923 76.6905 21.9469ZM82.3005 12.4914C81.2623 5.95596 75.7884 0.853371 68.9882 0.0795174C63.3184 -0.531101 56.9231 2.43131 53.4649 7.02001C50.008 2.43131 43.6352 -0.531101 37.9404 0.0795174C31.1414 0.853371 25.6675 5.94992 24.6281 12.4914C23.965 16.669 25.0686 20.768 27.7332 24.0448C27.7962 24.1173 27.8636 24.1899 27.9359 24.2503L52.2627 49.2312C52.5759 49.5577 53.0095 49.7391 53.4649 49.7391C53.9197 49.7391 54.3539 49.5577 54.6671 49.2312L79.1954 24.0448C81.8613 20.768 82.9649 16.6629 82.3005 12.4914Z" fill="#E26D00"/>
<path d="M103.336 46.4804C103.266 47.1878 102.348 50.8878 102.108 51.3896L88.1486 68.5957C87.2415 69.4723 86.7412 70.6391 86.7412 71.8846V75.2702C81.1213 75.2702 71.624 75.2702 65.9742 75.2702L66.109 67.5135C66.1832 63.2513 67.9875 59.3457 71.0569 56.8005C71.2815 56.6191 71.4955 56.4498 71.702 56.3047L72.5106 55.7304C73.4245 55.0714 74.3922 54.3761 75.6693 53.6083L76.179 53.1972C81.004 49.062 85.1933 44.5337 88.634 39.7274C89.125 39.0442 89.8624 38.5847 90.714 38.4336C91.4065 38.3066 92.1296 38.4154 92.7591 38.7238L93.1334 38.9414C94.6313 39.945 93.6824 42.1759 93.2401 42.8772L85.8921 53.1368C85.6781 53.4391 85.5764 53.8139 85.602 54.1766C85.6132 54.3459 85.8409 58.4086 81.3609 61.5887L83.3167 64.1763C88.2516 60.6637 88.8598 56.1838 88.9066 54.5454L96.0045 44.6304C97.5691 42.1698 97.8312 38.8386 95.5372 36.771C97.7257 30.4834 98.1918 20.7982 98.2055 20.4475L98.2479 20.0364C98.5318 17.2917 99.059 12.1891 101.384 11.1855C101.574 11.0948 101.732 11.1553 101.808 11.1916C101.887 11.2339 102.024 11.3246 102.066 11.5362C102.092 11.6571 104.593 24.0387 103.336 46.4804ZM105.308 10.9135C105.087 9.80104 104.359 8.8579 103.315 8.34402C102.274 7.82409 101.059 7.79386 100.015 8.27148C95.9627 10.0247 95.3344 16.0946 94.9589 19.716L94.9102 20.2118C94.9058 20.3146 94.4597 29.4799 92.5382 35.3442C91.739 35.1931 90.9236 35.1387 90.1257 35.2777C88.4032 35.586 86.909 36.5171 85.9183 37.9015C82.6292 42.4963 78.6158 46.8371 74.0341 50.7608L73.7614 51.0026C72.5867 51.6918 71.5342 52.4476 70.5416 53.161L69.758 53.7172C69.4916 53.9046 69.209 54.1222 68.9121 54.3641C65.1214 57.5078 62.8941 62.2839 62.8037 67.453L62.6683 75.2702C61.8504 75.2702 61.3775 75.2702 61.3775 75.2702C60.9383 75.2702 60.5191 75.4394 60.209 75.7357C59.8989 76.038 59.7249 76.443 59.7249 76.8723V89H63.0295V78.4683H86.6345C87.8673 78.4683 88.8598 78.4683 89.659 78.4623V89H92.9637V76.8723C92.9637 75.9836 92.225 75.2702 91.3117 75.2702C91.3048 75.2702 91.2986 75.2702 91.2923 75.2702C91.2268 75.2702 90.7545 75.2702 90.0464 75.2702V71.8846C90.0464 71.4976 90.2031 71.1349 90.6161 70.7177L104.679 53.4028C105.542 52.3932 106.607 47.1696 106.636 46.6739C107.917 23.7546 105.413 11.4152 105.308 10.9135Z" fill="#E26D00"/>
<path d="M20.2579 75.2702V71.8846C20.2579 70.6391 19.7575 69.4723 18.9814 68.7347L4.9835 51.5226C4.65098 50.8878 3.73263 47.1878 3.66462 46.4986C2.40627 24.0387 4.90739 11.6571 4.93671 11.5241C4.97539 11.3246 5.11203 11.2339 5.19126 11.1916C5.27049 11.1553 5.42397 11.0948 5.63547 11.1916C7.94006 12.1891 8.46722 17.2917 8.75171 20.0364L8.78729 20.3569C8.80663 20.7922 9.27329 30.4714 11.4581 36.7589C9.16598 38.7782 9.42237 42.1517 11.0444 44.703L18.0924 54.5454C18.1392 56.1838 18.7475 60.6637 23.6823 64.1763L25.6382 61.5887C21.1581 58.4086 21.3858 54.3459 21.3958 54.1887C21.4276 53.8139 21.3259 53.4451 21.1069 53.1368L13.8088 42.9437C13.3166 42.1759 12.3696 39.945 13.7851 38.9958L14.2225 38.7359C14.8514 38.4154 15.5794 38.3066 16.2862 38.4336C17.1366 38.5847 17.8759 39.0442 18.3681 39.7334C21.8019 44.5277 25.9919 49.062 30.8637 53.2335L31.5238 53.7413C32.6068 54.3761 33.5751 55.0714 34.4885 55.7304L35.2982 56.3047C35.5016 56.4498 35.7162 56.6191 35.9377 56.8005C39.0134 59.3457 40.8177 63.2513 40.89 67.5135L41.0248 75.2702C35.375 75.2702 25.8771 75.2702 20.2579 75.2702ZM45.6221 75.2702C45.6221 75.2702 45.1492 75.2702 44.3307 75.2702L44.1953 67.4591C44.1061 62.284 41.8795 57.5139 38.0869 54.3641C37.795 54.1222 37.5093 53.9046 37.2429 53.7172L36.4574 53.161C35.4648 52.4476 34.4123 51.6918 33.4316 51.1356L33.0086 50.7971C28.3782 46.8311 24.3667 42.4903 21.0845 37.9016C20.0882 36.5171 18.594 35.586 16.8752 35.2777C16.071 35.1447 15.2581 35.1991 14.4621 35.3442C12.5393 29.4799 12.0926 20.3085 12.0826 20.1211L12.0401 19.716C11.6646 16.0946 11.037 10.0247 7.00549 8.27751C5.93742 7.7999 4.72835 7.81805 3.68586 8.34402C2.64024 8.85791 1.91218 9.80105 1.6932 10.9014C1.58652 11.4153 -0.918344 23.7546 0.364968 46.6739C0.392418 47.1696 1.45735 52.3932 2.29335 53.3726L16.514 70.8568C16.7966 71.1349 16.9526 71.4976 16.9526 71.8846V75.2702C16.2457 75.2702 15.7741 75.2702 15.7086 75.2702C15.7023 75.2702 15.6955 75.2702 15.6892 75.2702C14.7759 75.2702 14.0366 75.9836 14.0366 76.8723V89H17.3419V78.4623C18.1404 78.4684 19.133 78.4683 20.3658 78.4683H43.9695V89H47.2748V76.8723C47.2748 76.443 47.1001 76.038 46.79 75.7357C46.4806 75.4394 46.0588 75.2702 45.6221 75.2702Z" fill="#E26D00"/>
</svg>
