<svg width="64" height="64" viewBox="0 0 64 64" fill="none" xmlns="http://www.w3.org/2000/svg">
<path d="M44.3611 3.617C43.7805 2.68458 42.6099 2.31017 41.596 2.73262C40.5972 3.14879 40.0382 4.21902 40.2673 5.27652L40.4718 6.22025C40.6805 7.18313 40.2924 8.15444 39.6135 8.86841C38.9333 9.58371 37.9449 9.98323 36.9828 9.76243L35.9802 9.53232C34.9174 9.2884 33.8336 9.84607 33.4142 10.8526C32.9953 11.858 33.3611 13.0189 34.2807 13.6025L35.067 14.1015C35.9138 14.6388 36.3341 15.6332 36.3395 16.636C36.3449 17.6251 35.925 18.5922 35.0899 19.1222L34.253 19.6533C33.3456 20.2292 32.9754 21.3685 33.3709 22.3678C33.7732 23.3841 34.8504 23.9614 35.9194 23.7336L36.9293 23.5183C37.8815 23.3154 38.8392 23.6952 39.5424 24.3686C40.2625 25.0581 40.6602 26.0635 40.4222 27.0316L40.1822 28.0076C39.9201 29.0734 40.4742 30.1712 41.4873 30.5933C42.4834 31.0084 43.6337 30.649 44.2164 29.7407L44.7995 28.8317C45.3328 28.0005 46.3155 27.5866 47.3031 27.588C48.3064 27.5894 49.2847 28.0179 49.815 28.8696L50.3595 29.7442C50.9244 30.6514 52.0572 31.0249 53.0509 30.6315C54.0668 30.2294 54.6368 29.1455 54.3924 28.0805L54.166 27.0938C53.9448 26.1302 54.3268 25.149 55.0088 24.4331C55.6863 23.7218 56.6688 23.3246 57.6271 23.5409L58.7189 23.7875C59.7768 24.0264 60.8534 23.47 61.2706 22.4689C61.6912 21.4594 61.3184 20.2939 60.3901 19.7159L59.5282 19.1792C58.6945 18.6601 58.2773 17.684 58.2738 16.702C58.2703 15.7361 58.6769 14.7969 59.4898 14.2753L60.4174 13.6803C61.3329 13.093 61.6952 11.9335 61.2768 10.9295C60.8564 9.92045 59.7699 9.3614 58.7045 9.60592L57.7204 9.83177C56.7528 10.0538 55.7722 9.66201 55.0828 8.94764C54.4048 8.24508 54.0174 7.26326 54.2392 6.31245L54.4602 5.36535C54.7082 4.30244 54.1517 3.21597 53.1442 2.79618C52.1407 2.37805 50.9819 2.7432 50.3994 3.66109L49.8938 4.45772C49.3593 5.3 48.3669 5.71824 47.3693 5.72281C46.3766 5.72737 45.4097 5.30105 44.885 4.45835L44.3611 3.617ZM47.3446 11.4317C48.0248 11.4317 48.705 11.5859 49.3761 11.867C52.0514 12.9915 53.321 16.0115 52.2056 18.6868C51.0901 21.3622 47.9885 22.6318 45.3132 21.5163C42.6378 20.4008 41.3682 17.3083 42.4837 14.6239C43.3271 12.6197 45.295 11.4407 47.3446 11.4317ZM21.6766 22.6046C20.2458 22.6046 19.0261 23.6421 18.7966 25.0544L18.5947 26.2967C18.3866 27.5772 17.403 28.5822 16.2023 29.0737C15.0175 29.5587 13.661 29.5257 12.6181 28.7831L11.5615 28.0307C10.3977 27.2019 8.80546 27.3348 7.79516 28.3451C6.79278 29.3475 6.6531 30.9242 7.46367 32.0872L8.17588 33.1091C8.92073 34.1778 8.9467 35.5602 8.46837 36.7718C7.98433 37.998 6.96151 38.993 5.66035 39.2045L4.44981 39.4012C3.03752 39.6307 2 40.8504 2 42.2812C2 43.6986 3.01865 44.911 4.41485 45.1554L5.72221 45.3842C6.9872 45.6055 7.97149 46.582 8.45218 47.7729C8.93671 48.9732 8.91341 50.3499 8.16254 51.4043L7.43118 52.4313C6.59944 53.5993 6.73284 55.1972 7.74673 56.2111C8.74718 57.2115 10.3188 57.3563 11.4852 56.5555L12.6069 55.7853C13.6587 55.0632 15.0135 55.0481 16.1948 55.5299C17.4031 56.0228 18.3873 57.0317 18.5966 58.3198L18.7966 59.5502C19.0261 60.9625 20.2458 62 21.6766 62C23.094 62 24.3064 60.9814 24.5508 59.5852L24.777 58.2927C25.0002 57.0169 25.9802 56.016 27.17 55.5043C28.3675 54.9892 29.7507 55.0105 30.8179 55.7592L31.9241 56.5352C33.0797 57.3458 34.6507 57.2091 35.6488 56.211C36.6602 55.1996 36.7855 53.6027 35.9442 52.4459L35.1784 51.3929C34.4169 50.3458 34.378 48.9709 34.8646 47.7711C35.3467 46.5826 36.3351 45.6074 37.5989 45.389L38.9795 45.1503C40.3756 44.909 41.3954 43.6979 41.3954 42.281C41.3954 40.851 40.357 39.6326 38.945 39.406L37.6345 39.1957C36.3515 38.9898 35.3429 38.0107 34.8526 36.8073C34.3699 35.6227 34.3957 34.2639 35.1303 33.2167L35.9306 32.0759C36.7412 30.9203 36.6045 29.3493 35.6064 28.3512C34.595 27.3398 32.9981 27.2145 31.8413 28.0558L30.8039 28.8103C29.7478 29.5784 28.3573 29.6111 27.1585 29.0934C25.9756 28.5826 25.0006 27.5896 24.7784 26.3204L24.5508 25.0194C24.3064 23.6232 23.094 22.6046 21.6766 22.6046ZM21.734 35.4462C25.5339 35.4462 28.5538 38.4661 28.5538 42.266C28.5538 46.0659 25.5339 49.1584 21.734 49.1584C17.9341 49.1584 14.8416 46.0659 14.8416 42.266C14.8416 38.4661 17.9341 35.4462 21.734 35.4462Z" fill="#2E3A59"/>
</svg>
