<svg width="64" height="64" viewBox="0 0 64 64" fill="none" xmlns="http://www.w3.org/2000/svg">
<path d="M31.9997 56.6668H18.6663C8.93301 56.6668 3.33301 51.0668 3.33301 41.3335V22.6668C3.33301 12.9335 8.93301 7.3335 18.6663 7.3335H45.333C55.0663 7.3335 60.6663 12.9335 60.6663 22.6668V30.6668C60.6663 31.7602 59.7597 32.6668 58.6663 32.6668C57.573 32.6668 56.6663 31.7602 56.6663 30.6668V22.6668C56.6663 15.0402 52.9597 11.3335 45.333 11.3335H18.6663C11.0397 11.3335 7.33301 15.0402 7.33301 22.6668V41.3335C7.33301 48.9602 11.0397 52.6668 18.6663 52.6668H31.9997C33.093 52.6668 33.9997 53.5735 33.9997 54.6668C33.9997 55.7602 33.093 56.6668 31.9997 56.6668Z" fill="#2E3A59"/>
<path d="M31.9997 34.3199C29.7597 34.3199 27.4931 33.6266 25.7597 32.2132L17.4131 25.5466C16.5597 24.8532 16.3997 23.5999 17.0931 22.7466C17.7864 21.8932 19.0397 21.7599 19.893 22.4266L28.2397 29.0933C30.2664 30.7199 33.7064 30.7199 35.7331 29.0933L44.0797 22.4266C44.9331 21.7333 46.1864 21.8666 46.8797 22.7466C47.573 23.5999 47.4397 24.8799 46.5597 25.5466L38.213 32.2132C36.5064 33.6266 34.2397 34.3199 31.9997 34.3199Z" fill="#2E3A59"/>
<path d="M42.1852 58.0798C41.1719 58.0798 40.2119 57.7065 39.5185 57.0131C38.6919 56.1865 38.3185 54.9864 38.5052 53.7331L39.0119 50.1331C39.1452 49.1998 39.7052 48.0798 40.3719 47.4131L49.8118 37.9731C51.0918 36.6931 52.3452 36.0264 53.7052 35.8931C55.3585 35.7331 57.0118 36.4264 58.5585 37.9731C60.1052 39.5198 60.7985 41.1465 60.6385 42.8265C60.5051 44.1598 59.8118 45.4398 58.5585 46.7198L49.1185 56.1598C48.4519 56.8265 47.3318 57.3865 46.3985 57.5198L42.7985 58.0265C42.5851 58.0532 42.3985 58.0798 42.1852 58.0798ZM54.1585 39.8665C54.1318 39.8665 54.1052 39.8665 54.0785 39.8665C53.7052 39.8932 53.1985 40.2398 52.6385 40.7998L43.1985 50.2398C43.1185 50.3198 42.9852 50.5865 42.9852 50.6932L42.5052 54.0265L45.8385 53.5464C45.9452 53.5198 46.2118 53.3864 46.2918 53.3064L55.7318 43.8665C56.2918 43.2798 56.6385 42.7998 56.6652 42.4265C56.7185 41.8931 56.1852 41.2531 55.7318 40.7998C55.3052 40.3731 54.6918 39.8665 54.1585 39.8665Z" fill="#2E3A59"/>
<path d="M55.7882 48.6665C55.6016 48.6665 55.4149 48.6398 55.2549 48.5865C51.7349 47.5998 48.9349 44.7998 47.9482 41.2798C47.6549 40.2132 48.2682 39.1198 49.3349 38.7998C50.4015 38.5064 51.4949 39.1198 51.7882 40.1865C52.4016 42.3732 54.1348 44.1065 56.3215 44.7198C57.3882 45.0131 58.0016 46.1332 57.7082 47.1998C57.4682 48.0798 56.6682 48.6665 55.7882 48.6665Z" fill="#2E3A59"/>
</svg>
