<svg width="65" height="64" viewBox="0 0 65 64" fill="none" xmlns="http://www.w3.org/2000/svg">
<path d="M62.2384 5.33172C62.0292 4.56899 61.3801 4 60.5754 4H53.5442C52.5726 4 51.7864 4.81341 51.7864 5.81863C51.7864 6.82385 52.5726 7.63726 53.5442 7.63726H57.6552L49.2607 17.4431C37.9431 30.6885 21.2879 37.6895 4.24193 36.1569C3.30642 36.0556 2.42399 36.8105 2.33997 37.8121C2.25583 38.812 2.97173 39.6929 3.93982 39.7798C5.58431 39.9273 6.97193 40 8.61139 40C25.0377 40 40.9335 32.6775 51.8942 19.8512L58.8176 11.7668V13.0931C58.8176 14.0984 59.6038 14.9118 60.5754 14.9118C61.547 14.9118 62.3333 14.0984 62.3333 13.0931V7.61325L62.2384 5.33172Z" fill="#2E3A59"/>
<path d="M60.5754 57.1745H58.7004V25.4115C58.7004 24.8183 58.2387 24.2885 57.5452 24.0843C56.8534 23.8842 56.0758 24.047 55.5986 24.501L54.5188 25.5315C52.7336 27.234 50.7886 28.8524 48.7355 30.3383C48.3647 30.6059 48.1536 30.988 48.1536 31.3881V57.1745H44.6379V35.7963C44.6379 35.2748 44.2791 34.7946 43.7076 34.5491C43.1359 34.3063 42.4373 34.3311 41.9 34.6236C39.7182 35.8018 37.4179 36.878 35.0627 37.8244C34.467 38.063 34.0911 38.5528 34.0911 39.0881V57.1745H30.5754V41.497C30.5754 41.0376 30.2974 40.6071 29.8305 40.3422C29.3652 40.0787 28.7644 40.0152 28.2271 40.167C25.9973 40.8058 23.697 41.348 21.3898 41.7757C20.5933 41.9247 20.0286 42.4945 20.0286 43.1526V57.1745H16.5129V44.1266C16.5129 43.7238 16.2984 43.3402 15.9258 43.0726C15.5499 42.805 15.04 42.6684 14.556 42.7236C12.3004 42.9305 10.0019 43.0367 7.72224 43.0395C6.75239 43.0409 5.96618 43.6728 5.96618 44.4522V57.1745H4.09106C3.11946 57.1745 2.33325 57.8063 2.33325 58.5872C2.33325 59.3681 3.11946 60 4.09106 60H60.5754C61.547 60 62.3333 59.3681 62.3333 58.5872C62.3333 57.8063 61.547 57.1745 60.5754 57.1745Z" fill="#2E3A59"/>
</svg>
