<svg width="89" height="90" viewBox="0 0 89 90" fill="none" xmlns="http://www.w3.org/2000/svg">
<path d="M2.52534 48.3444L9.58521 48.7651L9.77045 45.9115L4.12325 45.5771V36.6763L12.9731 36.1531C13.6476 36.1099 14.2107 35.6514 14.3522 35.0256C15.1398 31.5085 16.5712 28.2125 18.6072 25.2348C18.9748 24.6954 18.9203 23.9941 18.4737 23.514L12.6145 17.2133L19.2436 10.9181L25.8801 16.4797C26.3916 16.9059 27.1297 16.9544 27.6974 16.6092C30.8296 14.678 34.2981 13.3186 38.007 12.5688C38.6685 12.4339 39.1549 11.8999 39.1958 11.258L39.7458 2.85889H49.1207L49.672 11.258C49.7174 11.8999 50.2004 12.4339 50.8653 12.5688C54.5702 13.3132 58.0421 14.678 61.1732 16.6092C61.7357 16.9544 62.4801 16.9059 62.9915 16.4797L69.623 10.9181L76.26 17.2133L70.3957 23.514C69.9468 23.9941 69.8957 24.6954 70.2651 25.2348C72.2994 28.2071 73.7313 31.4977 74.5155 35.0256C74.6576 35.6514 75.2259 36.1099 75.8964 36.1531L84.7496 36.6763V45.5771L79.0956 45.9115L79.2831 48.7651L86.3463 48.3444C87.1419 48.3012 87.7556 47.6755 87.7556 46.9202V35.3331C87.7556 34.5779 87.1419 33.9575 86.3463 33.909L77.2033 33.3695C76.3908 30.257 75.1179 27.317 73.3961 24.6036L79.4479 18.098C79.9764 17.5316 79.9479 16.6739 79.3854 16.1453L70.7538 7.95121C70.1912 7.41716 69.2877 7.39558 68.6967 7.88647L61.8437 13.6315C58.9797 12.0024 55.8828 10.7833 52.6097 10.0173L52.0415 1.33766C51.9903 0.587837 51.3312 -0.000141144 50.5356 -0.000141144H38.3315C37.5365 -0.000141144 36.8797 0.587837 36.8297 1.33766L36.2602 10.0173C32.9855 10.7886 29.8902 12.0024 27.0314 13.6315L20.1756 7.88647C19.5801 7.39018 18.6765 7.41716 18.1151 7.95121L9.48522 16.1453C8.92209 16.6739 8.89421 17.5316 9.4204 18.098L15.4734 24.6036C13.7521 27.3224 12.4747 30.2624 11.665 33.3695L2.52362 33.909C1.72979 33.9575 1.11267 34.5779 1.11267 35.3331V46.9202C1.11267 47.6755 1.73151 48.3012 2.52534 48.3444Z" fill="#E26D00"/>
<path d="M60.1901 70.181L54.752 67.473L56.5079 64.6248C57.6955 65.0833 58.9513 65.3908 60.2355 65.3908C62.4573 65.3908 64.5655 64.6625 66.2703 63.4434L66.418 66.8095L60.1901 70.181ZM44.423 80.4519L38.2331 76.4871L38.386 73.0346C40.0975 74.27 42.2046 74.9982 44.4185 74.9982C46.6608 74.9982 48.7968 74.2538 50.5072 73.0077L50.6322 76.3684L44.423 80.4519ZM28.8674 70.1918L22.6252 66.8149L22.803 63.4542C24.5089 64.6733 26.6012 65.3908 28.7992 65.3908C29.9845 65.3908 31.1364 65.1211 32.2433 64.7327L34.1759 67.7104L28.8674 70.1918ZM18.7509 52.6708C18.481 52.2285 17.9872 51.9588 17.4519 51.9588L16.6098 52.1368V49.0997H17.0092C17.8411 49.0997 18.5145 48.4578 18.5145 47.6702V43.058C18.5145 41.8605 18.8378 40.733 19.4481 39.7944C20.7267 37.8255 23.3946 35.4789 28.8378 35.4465C34.6952 35.4411 37.2279 37.9603 38.4121 40.0965C38.8531 40.8895 39.0855 41.8605 39.0855 42.8962V43.0149C35.7027 44.1099 33.6679 46.1113 32.5064 47.8968C31.6012 49.2886 31.1233 50.9338 31.1233 52.6654V55.8805C30.0414 56.0639 29.2185 56.9701 29.2185 58.049V61.7442C29.2185 61.9977 29.3015 62.2297 29.3725 62.467C29.1799 62.4778 28.9929 62.5318 28.7992 62.5318C26.1421 62.5318 23.677 61.0645 22.4644 58.6909L18.7509 52.6708ZM44.4344 25.6233C48.7968 25.6233 52.8995 27.2363 55.9794 30.1654C56.7977 30.9368 57.4852 31.8053 58.1103 32.717C51.9562 33.3319 49.1207 36.6711 47.9592 38.7695C47.375 39.8214 47.0813 41.0621 47.0057 42.3513C46.2431 42.2596 45.4413 42.1949 44.5685 42.1949C44.5259 42.1949 44.4832 42.1949 44.4389 42.1949C43.5837 42.2003 42.7825 42.2542 42.0307 42.346C41.9534 41.0567 41.6596 39.816 41.0761 38.7641C39.906 36.6549 37.029 33.278 30.7704 32.7062C31.3903 31.7999 32.0734 30.9368 32.8871 30.1654C35.9726 27.2363 40.0731 25.6233 44.4344 25.6233ZM50.7004 68.4008C49.5412 70.6719 47.0779 72.1391 44.4185 72.1391C41.7608 72.1391 39.2958 70.6719 38.0831 68.2983L34.3702 62.2728C34.0997 61.8359 33.6059 61.5661 33.0712 61.5661L32.2285 61.7442V58.7071H32.6285C33.4604 58.7071 34.1338 58.0652 34.1338 57.2776V52.6654C34.1338 51.4679 34.4572 50.3351 35.0669 49.3964C36.346 47.4329 39.0139 45.0863 44.4565 45.0539C50.1606 44.9353 52.8427 47.5623 54.0303 49.7039C54.4735 50.4969 54.7009 51.4625 54.7009 52.5036V57.2776C54.7009 58.0652 55.3771 58.7071 56.2067 58.7071H56.6783L56.8318 61.5661H55.7691C55.235 61.5661 54.7406 61.8359 54.4678 62.2728L50.7004 68.4008ZM69.5888 39.789C70.1968 40.733 70.5207 41.8605 70.5207 43.058V47.6702C70.5207 48.4578 71.1969 49.0997 72.0266 49.0997H72.4641L72.6118 51.9588H71.5833C71.0492 51.9588 70.5548 52.2285 70.282 52.6708L66.5146 58.7935C65.3611 61.0645 62.8949 62.5318 60.2355 62.5318C59.9912 62.5318 59.7469 62.4724 59.5025 62.4454C59.5707 62.2189 59.6559 61.9923 59.6559 61.7442V58.0544C59.6559 56.9648 58.8149 56.0531 57.7125 55.8751V52.5036C57.7125 51.0039 57.3602 49.5744 56.6954 48.3715C55.7748 46.71 53.7916 44.2663 49.9503 43.0095V42.8962C49.9503 41.8605 50.1833 40.8895 50.6208 40.0965C51.8085 37.9549 54.4281 35.4465 60.1957 35.4465C65.6395 35.4789 68.3103 37.8254 69.5888 39.789ZM79.2432 70.1972C74.5155 68.061 71.0833 66.9767 69.4184 66.5128L69.1399 60.1852C69.1456 60.169 69.1626 60.1528 69.1683 60.1366L72.4471 54.8178H72.6118C74.1688 54.8178 75.436 53.6148 75.436 52.1368V48.4416C75.436 47.3627 74.6121 46.4619 73.5324 46.2785V43.058C73.5324 41.3318 73.0551 39.6865 72.1516 38.2894C70.8674 36.3204 67.7931 33.1323 61.5595 32.6792C60.6446 31.0177 59.5139 29.475 58.1103 28.1425C54.4622 24.6739 49.6037 22.7643 44.4344 22.7643C39.2696 22.7643 34.4112 24.6739 30.7591 28.1425C29.3475 29.4857 28.1968 31.0178 27.2859 32.6846C21.4967 33.1485 18.4321 35.9158 16.8876 38.2894C15.9819 39.6811 15.5046 41.3318 15.5046 43.058V46.2785C14.4226 46.4619 13.5992 47.3627 13.5992 48.4416V52.1368C13.5992 53.6148 14.8675 54.8178 16.4262 54.8178L19.8095 60.0342C19.9988 60.4064 20.2187 60.757 20.4545 61.1023L19.9141 61.0753L19.6271 66.5128C17.9667 66.9767 14.5266 68.0556 9.78916 70.1972C7.8594 71.0711 1.44902 74.3293 0 79.7129L2.95148 80.2793C3.81748 77.0696 7.72132 74.3023 11.0842 72.7811C16.1194 70.5047 19.605 69.4851 20.8659 69.1507L28.0701 73.0508C28.3014 73.1749 28.5582 73.2396 28.8157 73.2396C29.0435 73.2396 29.2696 73.1911 29.4799 73.094L35.4948 70.2835L35.2362 76.1202C33.5736 76.5841 30.1374 77.6684 25.4102 79.8046C23.4787 80.6785 17.0683 83.9367 15.6188 89.3203L18.5708 89.8867C19.4362 86.677 23.3406 83.9043 26.7035 82.3831C31.6444 80.1498 35.1004 79.1249 36.4199 78.7742L43.5923 83.3703C43.8463 83.5321 44.1406 83.613 44.4344 83.613C44.7344 83.613 45.0344 83.5267 45.2913 83.3595L52.4335 78.6664C53.7916 79.0601 57.2693 80.1606 62.1903 82.3885C65.4975 83.8827 69.3615 86.6069 70.3502 90L73.271 89.3095C73.271 89.2933 73.1915 89.0128 73.1915 89.002C71.6856 83.8612 65.3781 80.6623 63.4859 79.8046C58.7354 77.6576 55.2804 76.514 53.6325 76.0231L53.4109 70.03L59.5195 73.0778C59.7412 73.1857 59.9798 73.2396 60.2185 73.2396C60.4799 73.2396 60.7356 73.1749 60.9629 73.0508L68.1739 69.1507C69.4354 69.4851 72.9187 70.5047 77.9533 72.7811C81.3116 74.3023 85.2155 77.0696 86.102 80.3332L87.5737 80.0474L89 79.5726C87.5851 74.3293 81.1753 71.0711 79.2432 70.1972Z" fill="#E26D00"/>
</svg>
