<svg width="64" height="64" viewBox="0 0 64 64" fill="none" xmlns="http://www.w3.org/2000/svg">
<path d="M32 4C16.494 4 4 16.494 4 32C4 47.506 16.494 60 32 60C47.506 60 60 47.506 60 32C60 16.494 47.506 4 32 4ZM47.0769 32.8582C47.0769 33.7248 46.8582 34.3726 46.6478 35.2308L43.8462 43.4171C43.1983 45.5709 41.0445 47.0769 38.6803 47.0769H25.5385C20.8017 47.0769 16.9231 43.1983 16.9231 38.4615V28.988C16.9231 26.8341 18 24.8906 19.7248 23.6034L33.9351 12.8341C33.9351 12.8341 36.9555 13.4736 36.9555 16.2752C36.9555 17.3522 33.0769 23.3846 33.0769 23.3846H42.7692C45.1418 23.3846 47.0769 25.3197 47.0769 27.6923V32.8582Z" fill="#2E3A59"/>
</svg>
