<svg width="64" height="64" viewBox="0 0 64 64" fill="none" xmlns="http://www.w3.org/2000/svg">
<path d="M32 2C24.1982 2 17.8182 6.84976 17.8182 15.8462C17.8182 21.8678 20.6896 28.1058 24.9091 31.5673V34.7404C24.9091 36.1286 23.9489 37.3185 22.767 37.5529C13.5526 40.3203 6 46.2788 6 49.7404V53.9231C6 58.3041 17.5781 62 32 62C46.4219 62 58 58.3041 58 53.9231V49.7404C58 46.5132 50.6875 40.3203 41.233 37.5529C40.0511 37.3185 39.0909 35.8942 39.0909 34.7404V31.5673C43.3104 28.1058 46.1818 21.8678 46.1818 15.8462C46.1818 6.84976 39.8018 2 32 2Z" fill="#2E3A59"/>
</svg>
