<svg width="64" height="64" viewBox="0 0 64 64" fill="none" xmlns="http://www.w3.org/2000/svg">
<path d="M14.9864 6.43925C15.918 6.14836 16.8845 6 17.8576 6C22.5348 6 26 10.1186 26 14.7762L26 25.2238C26 29.8815 22.5348 34 17.8576 34C16.8845 34 15.918 33.8516 14.9864 33.5607L14.2743 33.3384C14.0312 33.2625 13.7919 33.1783 13.5569 33.0861C17.267 40.6207 23.3793 46.733 30.9139 50.4431C30.8218 50.2081 30.7375 49.9689 30.6616 49.7257L30.4393 49.0136C30.1484 48.082 30 47.1155 30 46.1424C30 41.4652 34.1186 38 38.7762 38H49.2238C53.8815 38 58 41.4652 58 46.1424C58 47.1155 57.8516 48.082 57.5607 49.0136L57.3384 49.7257C56.0431 53.8739 52.3381 56.878 47.9062 57.659C45.3259 58.1137 42.6742 58.1137 40.0938 57.659C39.9922 57.6411 39.8911 57.622 39.7903 57.6018C22.8793 54.3482 9.65168 41.1205 6.39815 24.2095C6.37795 24.1088 6.3589 24.0077 6.34102 23.9062C5.88633 21.3258 5.88633 18.6742 6.34102 16.0938C7.12197 11.6619 10.1261 7.95689 14.2743 6.66162L14.9864 6.43925Z" fill="#2E3A59"/>
<path d="M35.2147 10.5966C40.339 9.13655 45.919 10.3578 49.7806 14.2194C53.6423 18.0811 54.8635 23.6611 53.4035 28.7854C53.1008 29.8476 53.7166 30.9542 54.7789 31.2568C55.8412 31.5595 56.9477 30.9437 57.2504 29.8814C59.0768 23.4713 57.5757 16.3576 52.6091 11.391C47.6424 6.42435 40.5288 4.92327 34.1186 6.7497C33.0563 7.05237 32.4405 8.1589 32.7432 9.22119C33.0459 10.2835 34.1524 10.8993 35.2147 10.5966Z" fill="#2E3A59"/>
<path d="M40.2224 17.8657C41.5719 17.5969 43.2812 18.0501 44.6156 19.3845C45.9499 20.7188 46.4031 22.4282 46.1343 23.7777C45.9186 24.861 46.6218 25.914 47.7051 26.1298C48.7884 26.3456 49.8415 25.6423 50.0573 24.559C50.609 21.7888 49.641 18.753 47.444 16.5561C45.247 14.3591 42.2112 13.391 39.441 13.9428C38.3577 14.1585 37.6545 15.2116 37.8702 16.2949C38.086 17.3782 39.1391 18.0815 40.2224 17.8657Z" fill="#2E3A59"/>
</svg>
