<svg width="107" height="89" viewBox="0 0 107 89" fill="none" xmlns="http://www.w3.org/2000/svg">
<path d="M105.378 0H1.62223C0.728474 0 0 0.671478 0 1.50799V74.1591C0 74.9899 0.728474 75.6671 1.62223 75.6671H37.2134V72.6511H3.24447V3.01598H103.756V72.6511H69.6948V75.6671H105.378C106.272 75.6671 107 74.9899 107 74.1591V1.50799C107 0.671478 106.272 0 105.378 0Z" fill="#E26D00"/>
<path d="M66.4502 65.2761C66.8726 65.9931 66.9215 66.8411 66.5848 67.5979C66.2482 68.3491 65.5687 68.9181 64.7239 69.1457C62.7099 69.692 61.155 71.1374 60.5612 73.0153C60.3163 73.8005 59.7042 74.4322 58.89 74.7452C58.0819 75.0525 57.1698 75.0183 56.3985 74.62C55.4802 74.1534 54.464 73.9144 53.4539 73.9144C52.4439 73.9144 51.4277 74.1534 50.5095 74.62C49.7381 75.0183 48.826 75.0525 48.0179 74.7452C47.2038 74.4322 46.5977 73.8005 46.3468 73.0153C45.7591 71.1431 44.2042 69.692 42.184 69.1457C41.3393 68.9181 40.6597 68.3491 40.323 67.5979C39.9864 66.8411 40.0415 65.9931 40.4577 65.2761C41.4678 63.5633 41.4678 61.5147 40.4577 59.8019C40.0415 59.0849 39.9864 58.237 40.323 57.4858C40.6597 56.729 41.3393 56.1656 42.184 55.9323C44.2042 55.386 45.7591 53.9349 46.3468 52.0627C46.5977 51.2774 47.2038 50.6458 48.0179 50.3328C48.8321 50.0198 49.7381 50.0653 50.5095 50.458C52.3521 51.3969 54.5559 51.3969 56.3985 50.458C57.1698 50.0653 58.0758 50.0255 58.89 50.3328C59.7042 50.6458 60.3163 51.2774 60.5612 52.0627C61.155 53.9406 62.7099 55.386 64.7239 55.9323C65.5687 56.1656 66.2482 56.729 66.5848 57.4858C66.9215 58.237 66.8726 59.0849 66.4502 59.8019C65.4401 61.5147 65.4401 63.5633 66.4502 65.2761ZM53.4601 83.3834C53.4601 83.3834 53.4601 83.3834 53.4539 83.3834C51.697 83.3834 50.0136 83.7704 48.5016 84.4988V77.9091C49.7198 78.0229 50.9625 77.8295 52.0644 77.2661C52.9337 76.8222 53.9743 76.8222 54.8436 77.2661C55.7618 77.7327 56.7719 77.966 57.7819 77.966C57.9901 77.966 58.1982 77.9319 58.4064 77.9091V84.4988C56.8943 83.7704 55.2109 83.3834 53.4601 83.3834ZM69.2906 63.8308C68.8193 63.0227 68.8193 62.0553 69.2906 61.2529C70.1905 59.7279 70.2946 57.9354 69.5784 56.3306C68.8621 54.7259 67.4296 53.5252 65.636 53.0415C64.6871 52.7854 63.9526 52.1025 63.671 51.2205C63.1506 49.5532 61.859 48.2102 60.1327 47.5501C58.4125 46.8843 56.478 46.981 54.8436 47.8176C53.9682 48.2614 52.9337 48.2557 52.0644 47.8176C50.4238 46.981 48.4954 46.8843 46.7753 47.5501C45.049 48.2102 43.7573 49.5532 43.237 51.2205C42.9615 52.1025 42.2269 52.7854 41.2719 53.0415C39.4783 53.5252 38.0458 54.7259 37.3296 56.3306C36.6134 57.9354 36.7174 59.7279 37.6173 61.2472C38.0887 62.0553 38.0887 63.0227 37.6173 63.8308C36.7174 65.3558 36.6134 67.1483 37.3296 68.7531C38.0458 70.3521 39.4783 71.5528 41.2719 72.0365C42.2269 72.2983 42.9615 72.9811 43.237 73.8632C43.592 74.9842 44.3144 75.9402 45.2632 76.6572V87.492C45.2632 88.1066 45.6612 88.6586 46.2794 88.8862C46.8977 89.1195 47.5956 88.9772 48.0486 88.5334C49.481 87.1563 51.3971 86.3937 53.4539 86.3937C53.4601 86.3937 53.4601 86.3937 53.4601 86.3937C55.5108 86.3937 57.4331 87.1563 58.8594 88.5334C59.1655 88.835 59.594 89 60.0286 89C60.2306 89 60.4326 88.9602 60.6285 88.8862C61.2468 88.6586 61.6447 88.1066 61.6447 87.492V76.6572C62.5936 75.9402 63.3159 74.9842 63.671 73.8632C63.9526 72.9811 64.6871 72.2983 65.636 72.0365C67.4296 71.5528 68.8621 70.3521 69.5784 68.7531C70.2946 67.1483 70.1905 65.3558 69.2906 63.8308Z" fill="#E26D00"/>
<path d="M38.5724 21.1005V24.1165H68.6786V21.1005H38.5724Z" fill="#E26D00"/>
<path d="M29.8184 33.1588H77.4324V30.1485H29.8184V33.1588Z" fill="#E26D00"/>
<path d="M77.4324 39.1907H29.8184V42.2067H77.4324V39.1907Z" fill="#E26D00"/>
<path d="M32.3527 66.6191V63.6088H21.5052C20.8073 59.5287 17.3608 56.325 12.9716 55.6762V19.9908C17.3608 19.3364 20.8073 16.1327 21.5052 12.0583H85.4946C86.1925 16.1327 89.6451 19.3364 94.0282 19.9908V55.6762C89.6451 56.325 86.1925 59.5287 85.4946 63.6088H74.6287V66.6191H86.9515V65.1168H88.5738C88.5738 61.4863 91.7448 58.5386 95.6504 58.5386V57.0306H97.2726V18.6365H95.6504V17.1285C91.7448 17.1285 88.5738 14.1751 88.5738 10.5503H86.9515V9.04227H20.0482V10.5503H18.426C18.426 14.1751 15.255 17.1285 11.3494 17.1285V18.6365H9.73328V57.0306H11.3494V58.5386C15.255 58.5386 18.426 61.4863 18.426 65.1168H20.0482V66.6191H32.3527Z" fill="#E26D00"/>
</svg>
