<svg width="107" height="89" viewBox="0 0 107 89" fill="none" xmlns="http://www.w3.org/2000/svg">
<path d="M91.177 37.4974C90.0214 38.6498 89.2632 40.1273 88.9845 41.7817C88.1695 46.6136 87.2147 49.1579 83.554 53.2881L68.1863 38.1478C71.6233 38.0052 74.2219 36.2538 75.3855 34.9303L73.1036 32.9336C72.9625 33.0934 69.6637 36.5789 64.3863 34.4054L61.2624 31.3306C59.7237 29.8074 57.2421 29.7275 55.6025 31.148L54.83 31.8212C52.8152 33.5669 51.019 35.8259 49.1763 38.935C46.4109 43.5958 42.1922 45.3643 39.6757 44.3545C39.1584 44.1434 38.8762 43.8411 38.7368 43.3333C37.8542 40.133 42.7095 32.2091 45.9303 28.0275C47.7787 25.8654 50.8246 22.802 54.6562 20.5828C54.7038 20.5657 59.5132 18.6147 64.5199 17.6506C66.3419 17.3026 67.9426 16.4868 69.1458 15.2831L72.4176 12.0314L94.5991 34.0974L91.177 37.4974ZM86.0602 65.2511C85.3857 65.9243 84.4435 66.2608 83.3693 66.1752C82.2286 66.0954 81.116 65.5705 80.2351 64.692L67.9437 52.4667L67.9202 52.4439L65.7719 54.5832L80.5551 69.2843C82.0697 70.7961 82.1202 73.1978 80.6692 74.6411C79.2188 76.0844 76.805 76.0331 75.2886 74.527L73.1999 72.4505L60.3069 59.6204L58.1586 61.7597L71.0516 74.5841C72.5323 76.0559 72.5547 78.429 71.1037 79.8723C69.6516 81.3156 67.2647 81.2929 65.7856 79.8211L63.5857 77.6361C63.5834 77.6304 63.5816 77.6304 63.5794 77.6247L63.5788 77.6304L52.8921 66.9967L50.7443 69.136L61.4339 79.7697C62.7208 81.0533 62.5901 83.2724 61.1408 84.7157C59.6853 86.1533 57.4555 86.2845 56.1651 85.0009L55.0359 83.8771C56.4243 81.5895 56.1433 78.5717 54.1595 76.5979C52.7957 75.2402 50.9336 74.6982 49.1534 74.9263C49.1947 73.2491 48.5856 71.5491 47.2981 70.2713C45.9303 68.9078 44.0968 68.3202 42.3063 68.4514C42.542 66.4833 41.9324 64.4352 40.4189 62.9292C38.929 61.446 36.9102 60.8413 34.9614 61.0409C35.1083 59.2668 34.5279 57.4413 33.1664 56.0893C31.1098 54.0413 27.9859 53.7332 25.5766 55.1023C22.8507 51.7878 18.9979 46.4425 18.0304 41.6619C17.7024 40.0475 16.958 38.627 15.8735 37.5488L12.3998 34.0916L33.6395 12.967L34.8576 14.1763C37.2176 16.5267 40.4814 17.7019 43.5881 17.3311C45.8093 17.0687 48.8288 17.2227 51.5208 19.0539C48.042 21.3757 45.3201 24.0798 43.5686 26.1335C42.6086 27.3771 34.2406 38.4501 35.8068 44.132C36.1968 45.5525 37.1448 46.5965 38.5441 47.1555C42.8253 48.8612 48.5174 45.9918 51.7933 40.4696C53.465 37.6457 55.0639 35.6206 56.8269 34.0974L57.5994 33.4299C58.0387 33.042 58.7074 33.0648 59.1232 33.4756L62.6021 36.9041L62.5769 36.9555C62.6228 36.9783 62.6663 36.9897 62.7122 37.0125L85.4999 59.4551C87.2605 61.2064 87.5129 63.8078 86.0602 65.2511ZM45.5908 85.1208C45.0328 84.5617 44.7259 83.8258 44.7259 83.0443C44.7259 82.2627 45.0328 81.5268 45.5896 80.9734L47.2981 79.2733C47.3004 79.2676 47.3021 79.2676 47.305 79.2676L47.8384 78.7314C48.4136 78.1609 49.1689 77.8757 49.9253 77.8757C50.6806 77.8757 51.4354 78.1609 52.0112 78.7314C52.5675 79.2847 52.8749 80.0264 52.8749 80.8079C52.8749 81.5952 52.5675 82.3311 52.0112 82.8845L49.7619 85.1208C48.647 86.2275 46.7062 86.2275 45.5908 85.1208ZM37.9414 79.5757C37.3071 78.9425 36.9567 78.1039 36.9567 77.2139C36.9567 76.3183 37.3071 75.4797 37.9414 74.8465L40.4 72.4049C41.0549 71.7545 41.9129 71.4293 42.7732 71.4293C43.634 71.4293 44.4942 71.7545 45.1498 72.4049C46.4585 73.7113 46.4591 75.8277 45.1532 77.134L43.4424 78.8341C43.4419 78.8341 43.4407 78.8341 43.4401 78.8341L42.6952 79.5757C41.4248 80.8422 39.2117 80.8422 37.9414 79.5757ZM35.656 72.8498C34.2658 74.2303 31.8399 74.236 30.4474 72.8498C29.0113 71.4236 29.0113 69.0961 30.4474 67.6699L30.4164 67.6414C30.5277 67.5444 30.651 67.4702 30.7571 67.3619L33.0643 65.0685C34.5003 63.6366 36.8351 63.6366 38.2711 65.0685C39.7055 66.4947 39.7055 68.8165 38.2711 70.2484L38.2557 70.2656C38.2528 70.2656 38.2499 70.2656 38.2476 70.2713L35.7936 72.7129L35.656 72.8498ZM23.9805 65.2283C23.3634 64.6121 23.0222 63.7963 23.0222 62.9235C23.0222 62.0564 23.3634 61.2407 23.9805 60.6246L26.391 58.2228C27.0098 57.6124 27.8305 57.2701 28.7056 57.2701C29.5791 57.2701 30.3998 57.6124 31.018 58.2228C31.6351 58.8389 31.9769 59.6547 31.9769 60.5275C31.9769 61.3946 31.6351 62.2105 31.018 62.8266L30.9159 62.9292L28.6093 65.2283C27.3333 66.4947 25.256 66.4947 23.9805 65.2283ZM104.852 30.3208L99.9769 35.1698L71.6423 6.98833L76.5171 2.13928L74.3693 0L68.4203 5.9159C67.8267 6.5092 67.8267 7.46189 68.4203 8.05518L70.2693 9.89207L66.9963 13.1495C66.2232 13.9196 65.1685 14.4502 63.9447 14.6841C59.9554 15.4485 56.1777 16.772 54.3838 17.4566C50.6709 14.2733 46.3203 13.9653 43.2256 14.3304C41.0423 14.5985 38.7133 13.737 37.0054 12.0427L35.7879 10.8277L38.5797 8.05518C38.8641 7.76995 39.0247 7.38768 39.0247 6.98264C39.0247 6.58331 38.8641 6.20114 38.5797 5.9159L32.6307 0L30.4829 2.1336L35.3577 6.98264L7.02257 35.1698L2.14777 30.3208L0 32.4601L5.94839 38.3702C6.24547 38.6668 6.6343 38.8152 7.02257 38.8152C7.4114 38.8152 7.80024 38.6668 8.09674 38.3702L10.2514 36.2309L13.7251 39.6823C14.3835 40.3383 14.844 41.234 15.0511 42.2609C16.1098 47.4865 19.9241 53.0144 23.2648 57.0591L21.8328 58.4853C19.373 60.9326 19.373 64.9145 21.8328 67.3619C23.0624 68.5884 24.6791 69.1987 26.2946 69.1987C26.3422 69.1987 26.3887 69.1817 26.4357 69.1817C26.3784 69.5354 26.3302 69.8947 26.3302 70.2598C26.3302 72.0454 27.0293 73.7226 28.299 74.9891C29.6089 76.2898 31.33 76.9402 33.0505 76.9402C33.3533 76.9402 33.6533 76.8945 33.9532 76.8546C33.9469 76.9744 33.9182 77.0941 33.9182 77.2139C33.9182 78.9139 34.5847 80.5113 35.7936 81.715C37.0014 82.9187 38.6078 83.5804 40.3186 83.5804C40.798 83.5804 41.266 83.512 41.7236 83.4093C41.8125 84.864 42.3998 86.2217 43.4424 87.2543C44.5728 88.3839 46.0771 89 47.6766 89C49.2756 89 50.7799 88.3839 51.9102 87.2543L53.0234 86.1476L54.0167 87.1402C55.1695 88.2869 56.7111 88.9087 58.3817 88.9087C58.4717 88.9087 58.5623 88.9087 58.6541 88.903C60.3826 88.8346 62.0292 88.1043 63.2886 86.8493C64.3622 85.7825 64.9965 84.459 65.2322 83.107C66.2507 83.6547 67.3668 83.9627 68.4914 83.9627C70.2211 83.9627 71.9434 83.3123 73.2521 82.0116C74.3681 80.8992 74.9778 79.4902 75.1418 78.0298C76.0772 78.469 77.0785 78.7086 78.0839 78.7086C79.809 78.7086 81.5192 78.064 82.8176 76.7747C84.8633 74.7438 85.2699 71.6917 84.0971 69.1702C85.6782 69.0732 87.1183 68.4743 88.2085 67.3904C90.8449 64.7662 90.5943 60.248 87.6436 57.3158L85.7109 55.4104C89.8895 50.7097 91.0784 47.6291 91.981 42.2837C92.1548 41.2512 92.6188 40.3384 93.3253 39.6367L96.7474 36.2309L98.9033 38.376C99.1998 38.6726 99.5886 38.8209 99.9769 38.8209C100.366 38.8209 100.755 38.6726 101.051 38.376L107 32.4601L104.852 30.3208Z" fill="#E26D00"/>
</svg>
