<svg width="64" height="64" viewBox="0 0 64 64" fill="none" xmlns="http://www.w3.org/2000/svg">
<path d="M30.9275 50.9024C31.582 50.4866 32.418 50.4866 33.0725 50.9024L46.4721 59.4155C47.975 60.3704 49.8825 59.0331 49.4972 57.2947L45.8705 40.9304C45.7156 40.2312 45.9463 39.5024 46.4755 39.0198L58.6386 27.9284C59.9248 26.7556 59.2026 24.6133 57.4689 24.4585L41.6499 23.0458C40.9012 22.9789 40.2533 22.498 39.9726 21.8007L33.8553 6.60774C33.1826 4.93708 30.8174 4.93708 30.1447 6.60774L24.0274 21.8007C23.7467 22.498 23.0988 22.9789 22.3501 23.0458L6.53111 24.4585C4.79739 24.6133 4.07523 26.7556 5.36139 27.9284L17.5245 39.0198C18.0537 39.5024 18.2844 40.2312 18.1295 40.9304L14.5028 57.2947C14.1175 59.0331 16.025 60.3704 17.5279 59.4155L30.9275 50.9024Z" fill="#2E3A59"/>
</svg>
