<svg width="52" height="56" viewBox="0 0 52 56" fill="none" xmlns="http://www.w3.org/2000/svg">
<path d="M9.91798 40.42C9.91065 41.6976 10.2914 42.9469 11.009 44H5.95069C4.37385 43.9953 2.86294 43.3616 1.74795 42.2374C0.632949 41.1132 0.00446521 39.5898 -0.000244141 38V18C0.00446521 16.4102 0.632949 14.8868 1.74795 13.7626C2.86294 12.6384 4.37385 12.0047 5.95069 12H11.009C10.2914 13.0531 9.91065 14.3024 9.91798 15.58V40.42ZM32.0693 0H25.6483C24.8539 0.00513691 24.0702 0.183923 23.351 0.524028C22.6318 0.864134 21.9944 1.35746 21.4826 1.97L13.3497 11.546C12.4071 12.673 11.8938 14.1018 11.9016 15.576V40.424C11.896 41.8992 12.4122 43.3281 13.3576 44.454L21.4906 54.03C22.0023 54.6425 22.6398 55.1359 23.3589 55.476C24.0781 55.8161 24.8619 55.9949 25.6562 56H32.0773C33.6091 55.9503 35.0592 55.2914 36.1107 54.1671C37.1622 53.0429 37.7296 51.5447 37.689 50V6C37.7296 4.45392 37.1611 2.95458 36.1079 1.83011C35.0547 0.705629 33.6026 0.0475918 32.0693 0ZM51.9712 35.314C51.9711 35.0209 51.9071 34.7313 51.7837 34.4659C51.6603 34.2004 51.4805 33.9656 51.2571 33.778L44.358 27.978C54.5718 19.178 54.5222 22.104 44.358 13.322L51.2571 7.522C51.4574 7.35404 51.623 7.14794 51.7443 6.91547C51.8656 6.68301 51.9404 6.42872 51.9642 6.16714C51.9881 5.90556 51.9606 5.6418 51.8833 5.39093C51.8061 5.14005 51.6806 4.90697 51.514 4.705C51.3474 4.50303 51.143 4.33611 50.9124 4.21379C50.6819 4.09147 50.4297 4.01613 50.1702 3.99208C49.9108 3.96803 49.6492 3.99574 49.4004 4.07362C49.1515 4.1515 48.9204 4.27804 48.72 4.446L39.99 11.8C39.7683 11.9889 39.5901 12.2242 39.4678 12.4897C39.3456 12.7552 39.2822 13.0443 39.2822 13.337C39.2822 13.6297 39.3456 13.9188 39.4678 14.1843C39.5901 14.4498 39.7683 14.6851 39.99 14.874L46.8891 20.674C36.6714 29.474 36.7289 26.548 46.8891 35.332L39.9861 41.132C39.7649 41.3211 39.5873 41.5564 39.4655 41.8216C39.3436 42.0869 39.2805 42.3757 39.2805 42.668C39.2805 42.9603 39.3436 43.2491 39.4655 43.5144C39.5873 43.7796 39.7649 44.0149 39.9861 44.204L48.7141 51.546C49.0728 51.8429 49.5235 52.0035 49.9876 52C50.3919 51.993 50.7845 51.8624 51.1136 51.6256C51.4427 51.3888 51.6928 51.0569 51.8308 50.6737C51.9688 50.2905 51.9882 49.8741 51.8865 49.4796C51.7848 49.085 51.5667 48.7309 51.2611 48.464L44.356 42.664L51.2611 36.864C51.4856 36.6745 51.6657 36.4372 51.7885 36.1692C51.9112 35.9013 51.9737 35.6092 51.9712 35.314Z" fill="#2E3A59"/>
</svg>
